<?xml version="1.0" ?><svg id="Layer_1" style="enable-background:new 0 0 48 48;" version="1.1" viewBox="0 0 48 48" xml:space="preserve" xmlns="http://www.w3.org/2000/svg" xmlns:xlink="http://www.w3.org/1999/xlink"><style type="text/css">
	.st0{fill:#F9B17B;}
	.st1{fill:#F9AE7B;}
	.st2{opacity:0.5;}
	.st3{fill:#F69164;}
	.st4{fill:#603813;}
	.st5{fill:#3B2314;}
	.st6{fill:#FFFFFF;}
	.st7{fill:#009345;}
	.st8{fill:#F8B677;}
	.st9{fill:#8A5D3B;}
	.st10{fill:#A87C4F;}
	.st11{fill:#321B0F;}
	.st12{fill:#404041;}
	.st13{fill:#929497;}
	.st14{fill:#754C28;}
	.st15{fill:#009687;}
	.st16{fill:#C3996B;}
	.st17{fill:#FAAF40;}
	.st18{fill:#E89E3C;}
	.st19{fill:#D0D2D3;}
	.st20{fill:#58595B;}
	.st21{fill:#EAA476;}
	.st22{fill:#E29C75;}
	.st23{fill:#D5855B;}
	.st24{fill:#F05A28;}
	.st25{fill:#F6921E;}
	.st26{fill:#783340;}
	.st27{fill:#843A42;}
	.st28{fill:#6D6E70;}
	.st29{fill:#EE4036;}
	.st30{fill:#FDED16;}
	.st31{fill:#231F20;}
	.st32{fill:#885A3D;}
	.st33{fill:#5C3418;}
	.st34{fill:#C49291;}
	.st35{fill:#262261;}
	.st36{fill:#E6E7E8;}
</style><g><g><path class="st10" d="M32.35,34.86h-16.7c-4.24,0-7.67,3.44-7.67,7.67v0.9h32.05v-0.9C40.02,38.3,36.59,34.86,32.35,34.86z"/></g><g><g><g><path class="st0" d="M35.69,23.36H12.31c-1.29,0-2.34-1.05-2.34-2.34v-0.55c0-1.29,1.05-2.34,2.34-2.34h23.38      c1.29,0,2.34,1.05,2.34,2.34v0.55C38.03,22.31,36.98,23.36,35.69,23.36z"/></g><g><rect class="st1" height="5.39" width="5.94" x="21.14" y="30.82"/></g><g class="st2"><path class="st3" d="M24.67,26.26c-0.1-0.03-0.2-0.06-0.3-0.08c-0.65-0.02-1.3,0-1.95,0.05c-0.43,0.08-0.86,0.17-1.28,0.26v6.58      c0.88,0.26,1.6,0.36,2,0.41c0.38,0.05,0.81,0.08,1.3,0.06c0.42-0.01,0.81-0.05,1.14-0.11c0.3-0.04,0.85-0.13,1.53-0.34      c0-0.04,0-0.08,0-0.12v-6.34C26.27,26.61,25.44,26.49,24.67,26.26z"/></g><g><path class="st0" d="M25.54,31.98c-0.34,0.05-0.74,0.1-1.17,0.11c-0.5,0.01-0.94-0.02-1.33-0.06c-1.04-0.11-4.22-0.59-6.72-3.17      c-0.48-0.49-1.74-1.82-2.41-3.98c-0.28-0.91-0.44-1.88-0.44-2.89v-7.47c0-5.36,4.35-9.71,9.71-9.71h1.62      c5.36,0,9.71,4.35,9.71,9.71v7.47c-0.02,0.8-0.21,4.09-2.84,6.87C29.29,31.36,26.4,31.86,25.54,31.98z"/></g></g><g><path class="st9" d="M24.63,25.2c-0.02,0-0.03,0-0.05,0c-1.69-0.35-2.46-0.74-2.48-1.26c-0.02-0.35,0.29-0.55,0.62-0.77     c0.29-0.19,0.64-0.42,0.9-0.8c0.4-0.62,0.45-1.48,0.14-2.58c-0.04-0.13,0.04-0.26,0.16-0.29c0.12-0.03,0.26,0.04,0.29,0.16     c0.35,1.23,0.28,2.23-0.2,2.97c-0.31,0.46-0.72,0.74-1.03,0.94c-0.18,0.12-0.41,0.27-0.4,0.35c0,0.02,0.04,0.4,2.11,0.82     c0.13,0.03,0.21,0.15,0.18,0.28C24.84,25.12,24.74,25.2,24.63,25.2z"/></g><g><path class="st11" d="M35.24,19.72v-4.36c0-5.96-4.75-10.8-10.61-10.8h-1.21c-5.86,0-10.61,4.83-10.61,10.8v4.41h1.12     c-0.09-1.4-0.02-3.33,0.68-5.44c0.21-0.65,0.46-1.23,0.71-1.75c2.16,0.59,5.15,1.17,8.74,1.16c3.43-0.02,6.31-0.58,8.41-1.16     c0.22,0.36,0.43,0.76,0.62,1.19c1,2.25,1.09,4.42,0.97,5.93L35.24,19.72z"/></g><g><ellipse class="st11" cx="29.74" cy="20.8" rx="1.08" ry="1.69"/></g><g><ellipse class="st11" cx="18.87" cy="20.8" rx="1.08" ry="1.69"/></g><g><path class="st6" d="M21,26.9c0.08,0.87,1.52,1.57,3.28,1.57s3.21-0.7,3.28-1.57H21z"/></g></g><g><path class="st1" d="M19.93,34.85c-0.11,0.15-0.17,0.31-0.17,0.47c0,0.93,1.9,1.68,4.24,1.68s4.24-0.75,4.24-1.68    c0-0.16-0.06-0.32-0.17-0.47H19.93z"/></g><g><g><g><path class="st11" d="M31.73,17.67c-1.13-0.3-2.3-0.5-3.5-0.58c-0.35-0.02-0.62-0.31-0.6-0.65c0,0,0,0,0,0      c0.02-0.34,0.34-0.61,0.72-0.58c1.27,0.09,2.52,0.3,3.72,0.62c0.35,0.09,0.55,0.44,0.44,0.77l0,0      C32.4,17.58,32.06,17.76,31.73,17.67z"/></g></g><g><g><path class="st11" d="M20.61,17.15c-1.2,0.05-2.37,0.21-3.51,0.48c-0.33,0.08-0.67-0.12-0.76-0.44l0,0      c-0.09-0.33,0.11-0.67,0.47-0.75c1.21-0.28,2.46-0.46,3.73-0.51c0.37-0.02,0.69,0.26,0.69,0.6l0,0      C21.23,16.86,20.95,17.13,20.61,17.15z"/></g></g></g></g></svg>